<svg width="200" height="200" viewBox="0 0 200 200" fill="none" xmlns="http://www.w3.org/2000/svg">
<path d="M193.412 108.774H185.277C182.425 108.774 180.093 106.441 180.093 103.59V94.9363C180.093 94.3363 180.202 93.7625 180.392 93.2258C180.27 93.198 180.149 93.1676 180.025 93.1426L150.96 87.2133C149.988 87.0152 149.054 86.6824 148.179 86.2344V90.4883C148.179 93.2578 145.913 95.5238 143.143 95.5238H138.741C135.972 95.5238 133.706 93.2578 133.706 90.4883V86.0867C133.706 83.3172 135.972 81.0516 138.741 81.0516H141.682L123.025 64.9848C118.995 61.5144 114.188 59.0691 109.006 57.8742C95.1864 54.6879 66.17 50.5078 34.7571 61.1394C27.6958 63.5293 21.6454 68.232 17.6114 74.5012L7.66841 89.9527C7.00747 90.9801 6.44263 92.0598 5.977 93.1777L4.39536 105.83V110.747C4.39536 112.575 4.63911 114.396 5.11997 116.16L6.41646 122.087H193.431V109.56C193.431 109.296 193.424 109.035 193.412 108.774Z" fill="#D6EBFF"/>
<path d="M193.412 108.774H185.277C182.425 108.774 180.093 106.441 180.093 103.59V94.9363C180.093 94.3363 180.202 93.7625 180.392 93.2258C180.27 93.198 180.149 93.1676 180.025 93.1426L150.96 87.2133C149.988 87.0152 149.054 86.6824 148.179 86.2344V90.4883C148.179 93.2578 145.913 95.5238 143.143 95.5238H138.741C135.972 95.5238 133.706 93.2578 133.706 90.4883V86.0867C133.706 83.3172 135.972 81.0516 138.741 81.0516H141.682L123.025 64.9848C118.995 61.5144 114.188 59.0691 109.006 57.8742C95.1864 54.6879 66.17 50.5078 34.7571 61.1394C27.6958 63.5293 21.6454 68.232 17.6114 74.5012L7.66841 89.9527C7.00747 90.9801 6.44263 92.0598 5.977 93.1777L4.39536 105.83V110.747C4.39536 112.575 4.63911 114.396 5.11997 116.16L6.41646 122.087H193.431V109.56C193.431 109.296 193.424 109.035 193.412 108.774Z" fill="url(#paint0_linear)"/>
<path d="M193.412 108.774H185.277C182.425 108.774 180.093 106.441 180.093 103.59V94.9363C180.093 94.3363 180.202 93.7625 180.392 93.2258C180.27 93.198 180.149 93.1676 180.025 93.1426L150.96 87.2133C149.988 87.0152 149.054 86.6824 148.179 86.2344V90.4883C148.179 93.2578 145.913 95.5238 143.143 95.5238H138.741C135.972 95.5238 133.706 93.2578 133.706 90.4883V86.0867C133.706 83.3172 135.972 81.0516 138.741 81.0516H141.682L123.025 64.9848C118.995 61.5144 114.188 59.0691 109.006 57.8742C95.1864 54.6879 66.17 50.5078 34.7571 61.1394C27.6958 63.5293 21.6454 68.232 17.6114 74.5012L7.66841 89.9527C7.00747 90.9801 6.44263 92.0598 5.977 93.1777L4.39536 105.83V110.747C4.39536 112.575 4.63911 114.396 5.11997 116.16L6.41646 122.087H193.431V109.56C193.431 109.296 193.424 109.035 193.412 108.774Z" fill="url(#paint1_linear)"/>
<path d="M193.578 120.914C152.62 120.914 20.4489 120.914 6.41721 120.914C4.48987 120.914 2.92737 122.477 2.92737 124.404V127.572C2.92737 129.5 4.48987 131.062 6.41721 131.062H193.578C195.505 131.062 197.068 129.5 197.068 127.572V124.404C197.068 122.477 195.505 120.914 193.578 120.914Z" fill="#DFF2FA"/>
<path d="M180.177 93.177C179.875 93.8336 179.702 94.5602 179.702 95.3266V103.98C179.702 106.832 182.034 109.164 184.886 109.164H193.422C193.242 101.423 187.77 94.7988 180.177 93.177Z" fill="white"/>
<path d="M10.2703 93.177H5.97736C4.9383 95.6723 4.39572 98.3594 4.39572 101.086V105.83H10.2703C13.0399 105.83 15.3055 103.564 15.3055 100.795V98.2129C15.3059 95.443 13.0399 93.177 10.2703 93.177Z" fill="white"/>
<path d="M133.706 90.4879V88.0269L116.179 72.9336C113.44 70.5746 110.145 68.9019 106.65 68.0961C93.3824 65.0375 66.8375 61.357 38.1203 71.0754C33.3082 72.7039 29.1539 75.9418 26.4246 80.191C25.9887 80.8695 26.1274 81.7684 26.7356 82.298L38.7617 92.7742C39.0598 93.034 39.4422 93.1769 39.8375 93.1769H134.496C133.999 92.3973 133.706 91.4758 133.706 90.4879Z" fill="#9BCFFF"/>
<path d="M133.706 90.4879V88.0269L116.179 72.9336C113.44 70.5746 110.145 68.9019 106.65 68.0961C93.3824 65.0375 66.8375 61.357 38.1203 71.0754C33.3082 72.7039 29.1539 75.9418 26.4246 80.191C25.9887 80.8695 26.1274 81.7684 26.7356 82.298L38.7617 92.7742C39.0598 93.034 39.4422 93.1769 39.8375 93.1769H134.496C133.999 92.3973 133.706 91.4758 133.706 90.4879Z" fill="url(#paint2_linear)"/>
<path d="M133.706 90.4879V88.0269L116.179 72.9336C113.44 70.5746 110.145 68.9019 106.65 68.0961C93.3824 65.0375 66.8375 61.357 38.1203 71.0754C33.3082 72.7039 29.1539 75.9418 26.4246 80.191C25.9887 80.8695 26.1274 81.7684 26.7356 82.298L38.7617 92.7742C39.0598 93.034 39.4422 93.1769 39.8375 93.1769H134.496C133.999 92.3973 133.706 91.4758 133.706 90.4879Z" fill="url(#paint3_linear)"/>
<path d="M143.143 80.6602H138.742C135.75 80.6602 133.316 83.0942 133.316 86.0863V90.4879C133.316 93.4797 135.75 95.9141 138.742 95.9141H143.143C146.135 95.9141 148.57 93.4801 148.57 90.4879V86.0863C148.569 83.0945 146.135 80.6602 143.143 80.6602Z" fill="#DFF8FA"/>
<path d="M140.943 90.4879V86.0863C140.943 83.6559 142.549 81.5934 144.756 80.9051C144.246 80.7461 143.705 80.6606 143.143 80.6606H138.742C135.75 80.6606 133.316 83.0945 133.316 86.0867V90.4883C133.316 93.4801 135.75 95.9145 138.742 95.9145H143.143C143.705 95.9145 144.246 95.8289 144.756 95.6699C142.549 94.9809 140.943 92.9184 140.943 90.4879Z" fill="#B1DBFC"/>
<path d="M33.316 145.906C44.3829 145.906 53.3543 136.934 53.3543 125.868C53.3543 114.801 44.3829 105.829 33.316 105.829C22.2492 105.829 13.2777 114.801 13.2777 125.868C13.2777 136.934 22.2492 145.906 33.316 145.906Z" fill="white"/>
<path d="M24.0782 125.868C24.0782 116.673 30.2739 108.93 38.7165 106.571C36.9977 106.091 35.1883 105.829 33.3165 105.829C22.2497 105.829 13.2782 114.801 13.2782 125.868C13.2782 136.934 22.2497 145.906 33.3165 145.906C35.1883 145.906 36.9981 145.644 38.7165 145.164C30.2739 142.805 24.0782 135.063 24.0782 125.868Z" fill="#E8E8E8"/>
<path d="M33.316 135.887C38.8495 135.887 43.3352 131.401 43.3352 125.868C43.3352 120.334 38.8495 115.848 33.316 115.848C27.7826 115.848 23.2969 120.334 23.2969 125.868C23.2969 131.401 27.7826 135.887 33.316 135.887Z" fill="#D6EBFF"/>
<path d="M33.316 135.887C38.8495 135.887 43.3352 131.401 43.3352 125.868C43.3352 120.334 38.8495 115.848 33.316 115.848C27.7826 115.848 23.2969 120.334 23.2969 125.868C23.2969 131.401 27.7826 135.887 33.316 135.887Z" fill="url(#paint4_linear)"/>
<path d="M33.316 135.887C38.8495 135.887 43.3352 131.401 43.3352 125.868C43.3352 120.334 38.8495 115.848 33.316 115.848C27.7826 115.848 23.2969 120.334 23.2969 125.868C23.2969 131.401 27.7826 135.887 33.316 135.887Z" fill="url(#paint5_linear)"/>
<path d="M158.512 145.906C169.579 145.906 178.55 136.934 178.55 125.868C178.55 114.801 169.579 105.829 158.512 105.829C147.445 105.829 138.474 114.801 138.474 125.868C138.474 136.934 147.445 145.906 158.512 145.906Z" fill="white"/>
<path d="M149.274 125.868C149.274 116.673 155.47 108.93 163.913 106.571C162.194 106.091 160.384 105.829 158.513 105.829C147.446 105.829 138.474 114.801 138.474 125.868C138.474 136.934 147.446 145.906 158.513 145.906C160.384 145.906 162.194 145.644 163.913 145.164C155.47 142.805 149.274 135.063 149.274 125.868Z" fill="#E8E8E8"/>
<path d="M158.512 135.887C164.045 135.887 168.531 131.401 168.531 125.868C168.531 120.334 164.045 115.848 158.512 115.848C152.979 115.848 148.493 120.334 148.493 125.868C148.493 131.401 152.979 135.887 158.512 135.887Z" fill="#D6EBFF"/>
<path d="M158.512 135.887C164.045 135.887 168.531 131.401 168.531 125.868C168.531 120.334 164.045 115.848 158.512 115.848C152.979 115.848 148.493 120.334 148.493 125.868C148.493 131.401 152.979 135.887 158.512 135.887Z" fill="url(#paint6_linear)"/>
<path d="M158.512 135.887C164.045 135.887 168.531 131.401 168.531 125.868C168.531 120.334 164.045 115.848 158.512 115.848C152.979 115.848 148.493 120.334 148.493 125.868C148.493 131.401 152.979 135.887 158.512 135.887Z" fill="url(#paint7_linear)"/>
<path d="M158.2 112.812C151.06 112.812 145.252 118.621 145.252 125.761C145.252 132.9 151.06 138.709 158.2 138.709C165.34 138.709 171.149 132.9 171.149 125.761C171.149 118.621 165.34 112.812 158.2 112.812ZM158.2 132.85C154.291 132.85 151.111 129.67 151.111 125.761C151.111 121.851 154.291 118.671 158.2 118.671C162.109 118.671 165.289 121.852 165.289 125.761C165.29 129.67 162.109 132.85 158.2 132.85Z" fill="#313131"/>
<path d="M33.3184 112.812C26.1785 112.812 20.3695 118.621 20.3695 125.761C20.3695 132.9 26.1785 138.709 33.3184 138.709C40.4582 138.709 46.2672 132.9 46.2672 125.761C46.2672 118.621 40.4582 112.812 33.3184 112.812ZM33.3184 132.85C29.409 132.85 26.2289 129.67 26.2289 125.761C26.2289 121.851 29.4094 118.671 33.3184 118.671C37.2273 118.671 40.4078 121.852 40.4078 125.761C40.4078 129.67 37.2277 132.85 33.3184 132.85Z" fill="#313131"/>
<path d="M0 124.297V127.465C0 131.005 2.87969 133.885 6.41992 133.885H11.8395C15.1285 142.55 23.5137 148.728 33.3184 148.728C43.123 148.728 51.5086 142.551 54.7973 133.885H83.3727C84.991 133.885 86.3023 132.573 86.3023 130.955C86.3023 129.337 84.991 128.025 83.3727 128.025H56.1742C56.3176 126.573 56.3199 125.133 56.1973 123.736H135.321C135.2 125.112 135.199 126.572 135.345 128.025H97.0449C95.4266 128.025 94.1152 129.337 94.1152 130.955C94.1152 132.573 95.4266 133.885 97.0449 133.885H136.721C140.01 142.55 148.395 148.728 158.2 148.728C168.005 148.728 176.39 142.551 179.679 133.885H193.58C197.12 133.885 200 131.005 200 127.465V124.297C200 121.755 198.511 119.56 196.363 118.521V109.452C196.363 100.179 189.891 92.0562 180.613 90.1648L151.547 84.2351C151.318 84.1887 151.092 84.1273 150.867 84.0601C150.005 80.5937 146.875 78.0144 143.146 78.0144H142.772L133.799 70.2875C132.573 69.2316 130.723 69.3695 129.668 70.5957C128.612 71.8219 128.749 73.6715 129.975 74.7273L134.926 78.9906C133.534 79.7543 132.389 80.9465 131.679 82.3058L118.094 70.607C114.996 67.939 111.268 66.0469 107.311 65.1347C84.9527 59.9797 59.8754 60.5144 37.184 68.1941C31.7449 70.0351 27.0496 73.6953 23.9621 78.5015C22.7508 80.3875 23.1176 82.9234 24.8137 84.4008L36.8391 94.8758C37.6703 95.6008 38.7359 96 39.8402 96H133.105C134.591 97.4914 136.602 98.3465 138.745 98.3465H143.147C147.527 98.3465 151.112 94.7848 151.112 90.3812V90.1269L176.776 95.3625V103.875C176.776 108.348 180.416 111.988 184.889 111.988H190.505V117.878H179.78C176.482 108.816 167.844 102.793 158.201 102.793C148.598 102.793 139.934 108.78 136.622 117.878H54.8973C51.5812 108.766 42.9051 102.793 33.3184 102.793C23.7297 102.793 15.0547 108.768 11.7395 117.878H8.65742L7.94922 115.282C7.53672 113.77 7.32773 112.208 7.32773 110.64V108.653H10.2727C14.6645 108.653 18.2375 105.08 18.2375 100.688V98.1062C18.2375 93.9402 15.0215 90.5172 10.9426 90.175L20.0773 75.9797C23.7301 70.3035 29.2781 65.9805 35.6988 63.8074C66.1824 53.4902 94.3016 57.3832 108.35 60.6219C112.479 61.5742 116.292 63.3633 119.683 65.9394C120.972 66.9187 122.81 66.6672 123.788 65.3793C124.767 64.091 124.516 62.2531 123.228 61.2742C119.172 58.1926 114.609 56.0523 109.666 54.9125C95.0129 51.534 65.675 47.4762 33.8203 58.2574C26.1477 60.8539 19.5176 66.0215 15.15 72.8086L5.20703 88.2601C2.77734 92.0363 1.46836 96.4664 1.46836 100.98V105.723V110.64C1.46836 112.728 1.74687 114.809 2.29609 116.823L2.87617 118.95C1.14492 120.1 0 122.066 0 124.297H0ZM114.27 75.0465L130.779 89.2633V90.1402H93.1387V68.5949C98.1984 69.218 102.556 70.0512 105.994 70.8437C109.029 71.543 111.89 72.9965 114.27 75.0465ZM29.5289 80.7371C33.9113 74.7265 39.8023 73.1672 48.0785 71.1133L51.3055 90.1402H40.3234L29.5289 80.7371ZM57.2484 90.1402L53.8063 69.8445C71.3324 66.425 84.7039 67.9777 87.2789 68.0074V90.1402H57.2484ZM143.146 92.4867H138.744C137.507 92.4867 136.638 91.4379 136.638 90.3808C136.638 88.7551 136.638 87.6019 136.638 85.9793C136.638 84.8183 137.582 83.8734 138.744 83.8734H143.146C144.307 83.8734 145.252 84.818 145.252 85.9793V90.3808C145.252 91.5418 144.307 92.4867 143.146 92.4867ZM158.2 142.869C148.692 142.869 141.091 135.114 141.091 125.761C141.091 116.448 148.666 108.652 158.2 108.652C167.75 108.652 175.309 116.46 175.309 125.761C175.309 135.119 167.697 142.869 158.2 142.869ZM182.634 103.874V96.982C186.344 98.7625 189.095 102.135 190.092 106.128H184.889C183.645 106.128 182.634 105.117 182.634 103.874ZM193.433 123.737H193.58C193.889 123.737 194.14 123.988 194.14 124.297V127.466C194.14 127.775 193.889 128.026 193.58 128.026H181.056C181.205 126.536 181.198 125.084 181.079 123.737H193.433ZM33.3184 142.869C23.8105 142.869 16.2098 135.114 16.2098 125.761C16.2098 116.339 23.8852 108.652 33.3184 108.652C42.7277 108.652 50.427 116.315 50.427 125.761C50.427 135.142 42.7965 142.869 33.3184 142.869ZM10.4395 123.737C10.316 125.141 10.3215 126.611 10.4629 128.026H6.41992C6.11094 128.026 5.85938 127.774 5.85938 127.466V124.297C5.85938 123.988 6.11094 123.736 6.41992 123.736H10.4395V123.737ZM12.3781 98.1051V100.687C12.3781 101.848 11.4336 102.793 10.2727 102.793H7.32812C7.38086 101.719 7.08906 99.2379 8.04453 95.9996H10.273C11.434 95.9996 12.3781 96.9441 12.3781 98.1051Z" fill="#313131"/>
<path d="M102.588 107.092C104.206 107.092 105.517 105.78 105.517 104.162C105.517 102.544 104.206 101.233 102.588 101.233H98.916C97.2977 101.233 95.9864 102.544 95.9864 104.162C95.9864 105.78 97.2977 107.092 98.916 107.092H102.588Z" fill="#313131"/>
<path d="M65.8715 107.092C67.4899 107.092 68.8012 105.78 68.8012 104.162C68.8012 102.544 67.4899 101.233 65.8715 101.233H62.2C60.5816 101.233 59.2703 102.544 59.2703 104.162C59.2703 105.78 60.5816 107.092 62.2 107.092H65.8715Z" fill="#313131"/>
<defs>
<linearGradient id="paint0_linear" x1="98.913" y1="54.3195" x2="98.913" y2="122.087" gradientUnits="userSpaceOnUse">
<stop stop-color="white" stop-opacity="0"/>
<stop offset="1" stop-color="#73BCFF" stop-opacity="0.4"/>
</linearGradient>
<linearGradient id="paint1_linear" x1="4.74186" y1="91.2837" x2="194.595" y2="91.2837" gradientUnits="userSpaceOnUse">
<stop stop-color="#DCD0FF"/>
<stop offset="1" stop-color="white" stop-opacity="0"/>
</linearGradient>
<linearGradient id="paint2_linear" x1="80.3331" y1="64.7908" x2="80.3331" y2="93.1769" gradientUnits="userSpaceOnUse">
<stop stop-color="#6889FF" stop-opacity="0"/>
<stop offset="1" stop-color="#73BCFF" stop-opacity="0.4"/>
</linearGradient>
<linearGradient id="paint3_linear" x1="26.3691" y1="80.2742" x2="135.163" y2="80.2742" gradientUnits="userSpaceOnUse">
<stop stop-color="white" stop-opacity="0"/>
<stop offset="1" stop-color="#D0FCFF"/>
</linearGradient>
<linearGradient id="paint4_linear" x1="33.316" y1="115.848" x2="33.316" y2="135.887" gradientUnits="userSpaceOnUse">
<stop stop-color="white" stop-opacity="0"/>
<stop offset="1" stop-color="#73BCFF" stop-opacity="0.4"/>
</linearGradient>
<linearGradient id="paint5_linear" x1="23.3336" y1="126.778" x2="43.4586" y2="126.778" gradientUnits="userSpaceOnUse">
<stop stop-color="#DCD0FF"/>
<stop offset="1" stop-color="white" stop-opacity="0"/>
</linearGradient>
<linearGradient id="paint6_linear" x1="158.512" y1="115.848" x2="158.512" y2="135.887" gradientUnits="userSpaceOnUse">
<stop stop-color="white" stop-opacity="0"/>
<stop offset="1" stop-color="#73BCFF" stop-opacity="0.4"/>
</linearGradient>
<linearGradient id="paint7_linear" x1="148.53" y1="126.778" x2="168.655" y2="126.778" gradientUnits="userSpaceOnUse">
<stop stop-color="#DCD0FF"/>
<stop offset="1" stop-color="white" stop-opacity="0"/>
</linearGradient>
</defs>
</svg>
