<svg width="200" height="120" viewBox="0 0 200 120" fill="none" xmlns="http://www.w3.org/2000/svg">
<line x1="6" y1="59" x2="33" y2="59" stroke="white" stroke-width="2" stroke-linecap="round"/>
<line x1="167" y1="59" x2="194" y2="59" stroke="white" stroke-width="2" stroke-linecap="round"/>
<g clip-path="url(#clip0)">
<path d="M146.672 46.3662H139.916C139.481 46.3662 139.069 46.4674 138.699 46.643C138.745 47.3902 138.769 48.1445 138.769 48.9041V54.5C139.668 55.2732 140.469 56.1572 141.149 57.1316H146.672C148.247 57.1316 149.535 55.8432 149.535 54.2682V49.2295C149.535 47.6547 148.247 46.3662 146.672 46.3662V46.3662Z" fill="#DFEBFA"/>
<path d="M143.357 54.2682V49.2295C143.357 47.6547 144.646 46.366 146.221 46.366H139.916C139.481 46.366 139.069 46.4672 138.699 46.6428C138.745 47.39 138.769 48.1443 138.769 48.9039V54.4998C139.668 55.2731 140.469 56.157 141.149 57.1315H146.221C144.646 57.1317 143.357 55.843 143.357 54.2682V54.2682Z" fill="#B1DBFC"/>
<path d="M61.69 54.4998V48.9039C61.69 48.0502 61.7232 47.2039 61.7818 46.366H55.3283C53.7535 46.366 52.4648 47.6545 52.4648 49.2295V54.2682C52.4648 55.843 53.7533 57.1316 55.3283 57.1316H59.3104C59.9906 56.1572 60.791 55.2733 61.69 54.4998V54.4998Z" fill="#DFEBFA"/>
<path d="M57.1234 54.2682V49.2295C57.1234 47.6547 58.4119 46.366 59.9869 46.366H55.3283C53.7535 46.366 52.4648 47.6545 52.4648 49.2295V54.2682C52.4648 55.843 53.7533 57.1316 55.3283 57.1316H59.3104C59.3271 57.1076 59.3449 57.0842 59.3617 57.0604C58.0854 56.7729 57.1234 55.6283 57.1234 54.2682V54.2682Z" fill="#B1DBFC"/>
<path d="M70.4038 51.3312H130.056C133.525 51.3312 136.707 52.6242 139.16 54.7525V49.1074C139.16 43.1141 137.72 37.4277 135.104 33.0961C132.256 28.3795 128.352 25.7818 124.112 25.7818H76.3479C72.1077 25.7818 68.204 28.3795 65.3556 33.0961C62.7399 37.4277 61.2993 43.1141 61.2993 49.1074V54.7525C63.7522 52.6244 66.9347 51.3312 70.4038 51.3312V51.3312Z" fill="url(#paint0_radial)"/>
<path d="M70.4027 51.3313H130.055C131.508 51.3313 132.91 51.558 134.23 51.9772V49.1074C134.23 44.0139 133.045 39.2463 130.894 35.6828C128.974 32.5045 126.565 30.7541 124.111 30.7541H76.3471C73.8924 30.7541 71.4836 32.5045 69.5643 35.6828C67.4127 39.2463 66.2275 44.0139 66.2275 49.1074V51.9772C67.5475 51.558 68.95 51.3313 70.4027 51.3313V51.3313Z" fill="#60B8FE"/>
<path d="M72.508 49.1074C72.508 44.0139 73.693 39.2463 75.8447 35.6828C77.7641 32.5045 80.1728 30.7541 82.6275 30.7541H76.3471C73.8924 30.7541 71.4836 32.5045 69.5643 35.6828C67.4127 39.2463 66.2275 44.0139 66.2275 49.1074V51.9772C67.5477 51.558 68.9502 51.3313 70.4027 51.3313H72.5078V49.1074H72.508Z" fill="#23A8FE"/>
<path d="M117.854 38.9178C111.859 38.9178 106.999 43.8205 106.999 49.8686C106.999 50.3648 107.034 50.8525 107.098 51.3312H112.04C111.925 50.8627 111.862 50.373 111.862 49.8686C111.862 46.5305 114.545 43.8244 117.854 43.8244C121.163 43.8244 123.845 46.5305 123.845 49.8686C123.845 50.373 123.783 50.8629 123.667 51.3312H128.61C128.673 50.8523 128.709 50.3648 128.709 49.8686C128.709 43.8205 123.849 38.9178 117.854 38.9178V38.9178Z" fill="#23A8FE"/>
<path d="M117.854 38.9178C111.859 38.9178 106.999 43.8205 106.999 49.8686C106.999 50.3648 107.034 50.8525 107.098 51.3312H112.04C111.925 50.8627 111.862 50.373 111.862 49.8686C111.862 46.5305 114.545 43.8244 117.854 43.8244C121.163 43.8244 123.845 46.5305 123.845 49.8686C123.845 50.373 123.783 50.8629 123.667 51.3312H128.61C128.673 50.8523 128.709 50.3648 128.709 49.8686C128.709 43.8205 123.849 38.9178 117.854 38.9178V38.9178Z" fill="#23A8FE"/>
<path d="M112.452 47.2502C113.414 43.2977 116.501 40.1898 120.423 39.2291C119.599 39.0271 118.739 38.9178 117.854 38.9178C111.859 38.9178 106.999 43.8205 106.999 49.8686C106.999 50.3648 107.034 50.8525 107.098 51.3312H112.04C111.925 50.8627 111.862 50.373 111.862 49.8686C111.862 48.9305 112.074 48.0424 112.452 47.2502V47.2502Z" fill="#0193FA"/>
<path d="M130.055 51.1086H70.4024C62.7026 51.1086 56.4028 57.4084 56.4028 65.1082V79.4266C56.6099 79.3668 56.8276 79.333 57.0532 79.333H89.6548C90.0872 78.7549 90.7747 78.3774 91.5479 78.3774H108.909C109.682 78.3774 110.37 78.7549 110.802 79.333H143.404C143.629 79.333 143.847 79.3668 144.054 79.4266V65.1082C144.054 57.4082 137.754 51.1086 130.055 51.1086V51.1086Z" fill="url(#paint1_radial)"/>
<path d="M110.434 64.7792C113.03 64.7792 115.439 63.4299 116.796 61.2166L122.992 51.1084H77.4648L83.6607 61.2166C85.0174 63.4299 87.427 64.7792 90.023 64.7792H110.434Z" fill="url(#paint2_radial)"/>
<path d="M131.441 70.8643C134.595 70.8643 137.151 68.3078 137.151 65.1543C137.151 62.0008 134.595 59.4443 131.441 59.4443C128.288 59.4443 125.731 62.0008 125.731 65.1543C125.731 68.3078 128.288 70.8643 131.441 70.8643Z" fill="#FCFCFC"/>
<path d="M69.0181 70.8643C72.1716 70.8643 74.728 68.3078 74.728 65.1543C74.728 62.0008 72.1716 59.4443 69.0181 59.4443C65.8645 59.4443 63.3081 62.0008 63.3081 65.1543C63.3081 68.3078 65.8645 70.8643 69.0181 70.8643Z" fill="#FCFCFC"/>
<path d="M123.594 85.1633V91.4256C123.594 93.0203 124.899 94.3252 126.493 94.3252H139.325C140.919 94.3252 142.224 93.0203 142.224 91.4256V85.1633H123.594Z" fill="#665E68"/>
<path d="M132.135 91.4256V85.1633H123.594V91.4256C123.594 93.0203 124.899 94.3252 126.493 94.3252H135.035C133.44 94.3252 132.135 93.0205 132.135 91.4256Z" fill="#544E55"/>
<path d="M58.2334 85.1633V91.4256C58.2334 93.0203 59.5383 94.3252 61.133 94.3252H73.9642C75.559 94.3252 76.8639 93.0203 76.8639 91.4256V85.1633H58.2334Z" fill="#665E68"/>
<path d="M66.775 91.4256V85.1633H58.2334V91.4256C58.2334 93.0203 59.5383 94.3252 61.133 94.3252H69.6746C68.0797 94.3252 66.775 93.0205 66.775 91.4256Z" fill="#544E55"/>
<path d="M89.38 84.3392V79.7666C89.38 79.2385 89.5573 78.7512 89.8526 78.3564H57.0558C55.7546 78.3564 54.6899 79.4211 54.6899 80.7223V83.3836C54.6899 84.6848 55.7546 85.7494 57.0558 85.7494H89.8526C89.5575 85.3545 89.38 84.8672 89.38 84.3392V84.3392Z" fill="#DFEBFA"/>
<path d="M63.2315 83.3834V80.7223C63.2315 79.4211 64.2962 78.3564 65.5974 78.3564H57.0558C55.7546 78.3564 54.6899 79.4211 54.6899 80.7223V83.3834C54.6899 84.6848 55.7546 85.7494 57.0558 85.7494H65.5974C64.2962 85.7492 63.2315 84.6848 63.2315 83.3834Z" fill="#B1DBFC"/>
<path d="M143.406 78.3563H110.609C110.904 78.751 111.082 79.2383 111.082 79.7664V84.3391C111.082 84.8672 110.904 85.3545 110.609 85.7492H143.406C144.707 85.7492 145.772 84.6846 145.772 83.3834V80.7221C145.772 79.4209 144.707 78.3563 143.406 78.3563V78.3563Z" fill="#DFEBFA"/>
<path d="M109.496 86.7051H90.9635C89.6623 86.7051 88.5977 85.6404 88.5977 84.3393V79.7664C88.5977 78.4652 89.6623 77.4006 90.9635 77.4006H109.496C110.797 77.4006 111.862 78.4652 111.862 79.7664V84.3393C111.862 85.6404 110.798 86.7051 109.496 86.7051Z" fill="#B1DBFC"/>
<path d="M97.1391 84.3392V79.7664C97.1391 78.4652 98.2037 77.4006 99.5049 77.4006H90.9635C89.6623 77.4006 88.5977 78.4652 88.5977 79.7664V84.3392C88.5977 85.6404 89.6623 86.7052 90.9635 86.7052H99.5049C98.2037 86.705 97.1391 85.6404 97.1391 84.3392Z" fill="#8BCAFF"/>
<path d="M146.672 44.8479H140.407C139.353 35.0393 133.742 24.2633 124.112 24.2633H76.3479C71.5773 24.2633 67.2291 27.0879 64.1045 32.2168C61.9512 35.752 60.5586 40.1369 60.052 44.8479H55.3283C52.9416 44.8479 51 46.7895 51 49.176V54.2146C51 56.6014 52.9416 58.543 55.3283 58.543H56.3818C55.4584 60.5234 54.9393 62.7289 54.9393 65.0545V77.4777C53.9064 78.1646 53.2238 79.3379 53.2238 80.6685V83.3299C53.2238 85.3455 54.7898 86.9988 56.7684 87.1461V91.3721C56.7684 93.7787 58.7262 95.7367 61.1328 95.7367H73.9641C76.3705 95.7367 78.3285 93.7789 78.3285 91.3721V87.1605H88.4402C89.115 87.7535 89.9967 88.1164 90.9633 88.1164H109.496C110.463 88.1164 111.345 87.7535 112.019 87.1605H122.131V91.3721C122.131 93.7787 124.089 95.7367 126.496 95.7367H139.327C141.733 95.7367 143.691 93.7789 143.691 91.3721V87.1461C145.67 86.9986 147.236 85.3455 147.236 83.3299V80.6685C147.236 79.3379 146.553 78.1646 145.52 77.4777V72.5773C145.52 71.7682 144.864 71.1125 144.055 71.1125C143.246 71.1125 142.59 71.7682 142.59 72.5773V76.8377H112.019C111.322 76.2252 110.414 75.8818 109.496 75.8818H90.9633C90.0324 75.8818 89.1258 76.235 88.4402 76.8377H57.8689V65.0543C57.8689 58.0324 63.6531 52.5195 70.4037 52.5195H76.6459L82.4133 61.9285C84.0248 64.5572 86.9412 66.1902 90.0246 66.1902H110.435C113.518 66.1902 116.435 64.5572 118.046 61.9285L123.814 52.5195H130.056C136.793 52.5195 142.591 58.018 142.591 65.0543V65.7414C142.591 66.5506 143.246 67.2062 144.055 67.2062C144.865 67.2062 145.52 66.5506 145.52 65.7414C145.482 65.36 145.794 62.2238 144.078 58.543H146.672C149.058 58.543 151 56.6014 151 54.2146V49.176C151 46.7895 149.058 44.8479 146.672 44.8479ZM55.3283 55.6133C54.5572 55.6133 53.9297 54.9857 53.9297 54.2146V49.176C53.9297 48.4049 54.5572 47.7775 55.3283 47.7775H59.851C59.8408 48.1342 59.8346 48.4918 59.8346 48.8506V53.7805C59.2318 54.3459 58.6746 54.9586 58.1684 55.6133H55.3283ZM75.3988 91.3721C75.3988 92.1633 74.7553 92.807 73.9641 92.807H61.1328C60.3416 92.807 59.698 92.1633 59.698 91.3721V87.1605H75.3988V91.3721ZM140.762 91.3721C140.762 92.1633 140.118 92.807 139.327 92.807H126.496C125.704 92.807 125.061 92.1633 125.061 91.3721V87.1605H140.762V91.3721ZM143.405 79.7676C143.456 79.7676 143.506 79.7746 143.555 79.7834C143.576 79.7871 143.596 79.7916 143.616 79.7967C144.006 79.8951 144.306 80.2531 144.306 80.6685V83.3299C144.306 83.8184 143.893 84.2309 143.405 84.2309C140.19 84.2309 116.497 84.2309 113.327 84.2309V79.7676H143.405ZM109.496 78.8117C109.986 78.8117 110.397 79.2309 110.397 79.7127V84.2856C110.397 84.7457 110.005 85.1865 109.496 85.1865H90.9633C90.452 85.1865 90.0623 84.7439 90.0623 84.2856V79.7129C90.0623 79.2318 90.4721 78.8119 90.9633 78.8119L109.496 78.8117ZM87.1326 79.7676V84.231C84.0467 84.231 59.8893 84.231 57.0545 84.231C56.566 84.231 56.1535 83.8186 56.1535 83.3301V80.6688C56.1535 80.2535 56.4525 79.8957 56.842 79.7971C56.8629 79.7918 56.8836 79.7871 56.9041 79.7834C56.9533 79.7746 57.0031 79.7678 57.0545 79.7678L87.1326 79.7676ZM67.6934 49.8301V48.8506C67.6934 44.0668 68.8023 39.6111 70.816 36.3053C72.4594 33.6076 74.424 32.1221 76.3479 32.1221H97.582C98.3912 32.1221 99.0469 31.4664 99.0469 30.6572C99.0469 29.8481 98.3912 29.1924 97.582 29.1924H76.3479C73.3627 29.1924 70.5096 31.1772 68.3139 34.7811C66.0244 38.54 64.7635 43.5367 64.7635 48.8506V50.6596C64.0713 50.9316 63.4037 51.252 62.7643 51.617V48.8506C62.7643 43.698 63.9234 38.1457 66.6066 33.741C69.1791 29.5186 72.6387 27.1932 76.3479 27.1932H124.112C127.821 27.1932 131.28 29.5186 133.853 33.7408C136.526 38.1293 137.695 43.6498 137.695 48.8506V51.6172C137.056 51.2522 136.388 50.9318 135.696 50.6598V48.8506C135.696 43.5365 134.435 38.5398 132.146 34.7811C129.95 31.1772 127.097 29.1924 124.112 29.1924H104.418C103.609 29.1924 102.953 29.8481 102.953 30.6572C102.953 31.4664 103.609 32.1221 104.418 32.1221H124.112C126.036 32.1221 128 33.6076 129.643 36.3051C131.657 39.6113 132.766 44.0666 132.766 48.8506V49.8301C131.985 49.6904 131.061 49.599 130.174 49.592C130.167 42.8045 124.643 37.2848 117.854 37.2848C111.066 37.2848 105.543 42.8035 105.535 49.59C101.196 49.59 74.8756 49.59 70.4037 49.59C69.4877 49.59 68.4986 49.6859 67.6934 49.8301ZM115.548 60.3975C114.466 62.1637 112.506 63.2607 110.435 63.2607H90.0246C87.9531 63.2607 85.9937 62.1637 84.9111 60.3975L80.0822 52.5197H120.377L115.548 60.3975ZM113.328 49.59C113.336 47.101 115.363 45.0783 117.854 45.0783C120.345 45.0783 122.372 47.1008 122.38 49.59H113.328ZM125.311 49.59C125.302 45.4856 121.961 42.1486 117.854 42.1486C113.748 42.1486 110.406 45.4856 110.398 49.59H108.464C108.472 44.4189 112.681 40.2145 117.854 40.2145C123.027 40.2145 127.237 44.4189 127.245 49.59H125.311ZM148.07 54.2146C148.07 54.9857 147.443 55.6133 146.672 55.6133H142.291C141.785 54.9588 141.228 54.3461 140.625 53.7807V48.8506C140.625 48.4953 140.62 48.1369 140.609 47.7775H146.672C147.443 47.7775 148.07 48.4049 148.07 49.176L148.07 54.2146Z" fill="#050402"/>
<path d="M88.6465 68.7598C87.8373 68.7598 87.1816 69.4154 87.1816 70.2246C87.1816 71.0338 87.8373 71.6895 88.6465 71.6895H111.812C112.622 71.6895 113.277 71.0338 113.277 70.2246C113.277 69.4154 112.622 68.7598 111.812 68.7598H88.6465Z" fill="#050402"/>
<path d="M131.441 57.926C127.485 57.926 124.267 61.1445 124.267 65.1006C124.267 69.0566 127.485 72.2754 131.441 72.2754C135.398 72.2754 138.616 69.0568 138.616 65.1006C138.616 61.1443 135.398 57.926 131.441 57.926ZM131.441 69.3459C129.101 69.3459 127.196 67.4416 127.196 65.1008C127.196 62.7602 129.101 60.8559 131.441 60.8559C133.782 60.8559 135.687 62.7602 135.687 65.1008C135.687 67.4416 133.782 69.3459 131.441 69.3459Z" fill="#050402"/>
<path d="M61.8433 65.1006C61.8433 69.0568 65.0618 72.2754 69.0181 72.2754C72.9743 72.2754 76.1927 69.0568 76.1927 65.1006C76.1927 61.1443 72.9741 57.926 69.0181 57.926C65.062 57.926 61.8433 61.1443 61.8433 65.1006ZM73.2632 65.1006C73.2632 67.4414 71.3589 69.3457 69.0183 69.3457C66.6775 69.3457 64.7732 67.4414 64.7732 65.1006C64.7732 62.76 66.6775 60.8557 69.0183 60.8557C71.3589 60.8557 73.2632 62.76 73.2632 65.1006V65.1006Z" fill="#050402"/>
</g>
<defs>
<radialGradient id="paint0_radial" cx="0" cy="0" r="1" gradientUnits="userSpaceOnUse" gradientTransform="translate(139.16 25.7818) rotate(159.591) scale(83.076 53.8887)">
<stop stop-color="#FBEFFF"/>
<stop offset="1" stop-color="#D2EAFF"/>
</radialGradient>
<radialGradient id="paint1_radial" cx="0" cy="0" r="1" gradientUnits="userSpaceOnUse" gradientTransform="translate(144.054 51.1086) rotate(162.096) scale(92.1121 53.4808)">
<stop stop-color="#FBEFFF"/>
<stop offset="1" stop-color="#D2EAFF"/>
</radialGradient>
<radialGradient id="paint2_radial" cx="0" cy="0" r="1" gradientUnits="userSpaceOnUse" gradientTransform="translate(122.992 51.1084) rotate(163.286) scale(47.5354 25.9861)">
<stop stop-color="#FBEFFF"/>
<stop offset="1" stop-color="#D2EAFF"/>
</radialGradient>
<clipPath id="clip0">
<rect x="51" y="10" width="100" height="100" fill="white"/>
</clipPath>
</defs>
</svg>
