<svg width="200" height="120" viewBox="0 0 200 120" fill="none" xmlns="http://www.w3.org/2000/svg">
<path d="M156.047 65.2645H151.166C149.455 65.2645 148.056 63.8649 148.056 62.1541V56.9618C148.056 56.6018 148.121 56.2575 148.235 55.9355C148.162 55.9188 148.089 55.9006 148.015 55.8856L130.576 52.328C129.993 52.2091 129.433 52.0095 128.907 51.7406V54.293C128.907 55.9547 127.548 57.3143 125.886 57.3143H123.245C121.583 57.3143 120.224 55.9547 120.224 54.293V51.652C120.224 49.9903 121.583 48.6309 123.245 48.6309H125.009L113.815 38.9909C111.397 36.9087 108.513 35.4415 105.404 34.7245C97.1118 32.8127 79.702 30.3047 60.8542 36.6837C56.6174 38.1176 52.9872 40.9392 50.5668 44.7007L44.601 53.9716C44.2045 54.588 43.8656 55.2359 43.5862 55.9066L42.6372 63.498V66.4481C42.6372 67.5452 42.7835 68.6374 43.072 69.6959L43.8499 73.2523H156.058V65.7361C156.059 65.5777 156.055 65.4209 156.047 65.2645V65.2645Z" fill="#D6EBFF"/>
<path d="M156.047 65.2645H151.166C149.455 65.2645 148.056 63.8649 148.056 62.1541V56.9618C148.056 56.6018 148.121 56.2575 148.235 55.9355C148.162 55.9188 148.089 55.9006 148.015 55.8856L130.576 52.328C129.993 52.2091 129.433 52.0095 128.907 51.7406V54.293C128.907 55.9547 127.548 57.3143 125.886 57.3143H123.245C121.583 57.3143 120.224 55.9547 120.224 54.293V51.652C120.224 49.9903 121.583 48.6309 123.245 48.6309H125.009L113.815 38.9909C111.397 36.9087 108.513 35.4415 105.404 34.7245C97.1118 32.8127 79.702 30.3047 60.8542 36.6837C56.6174 38.1176 52.9872 40.9392 50.5668 44.7007L44.601 53.9716C44.2045 54.588 43.8656 55.2359 43.5862 55.9066L42.6372 63.498V66.4481C42.6372 67.5452 42.7835 68.6374 43.072 69.6959L43.8499 73.2523H156.058V65.7361C156.059 65.5777 156.055 65.4209 156.047 65.2645V65.2645Z" fill="url(#paint0_linear)"/>
<path d="M156.047 65.2645H151.166C149.455 65.2645 148.056 63.8649 148.056 62.1541V56.9618C148.056 56.6018 148.121 56.2575 148.235 55.9355C148.162 55.9188 148.089 55.9006 148.015 55.8856L130.576 52.328C129.993 52.2091 129.433 52.0095 128.907 51.7406V54.293C128.907 55.9547 127.548 57.3143 125.886 57.3143H123.245C121.583 57.3143 120.224 55.9547 120.224 54.293V51.652C120.224 49.9903 121.583 48.6309 123.245 48.6309H125.009L113.815 38.9909C111.397 36.9087 108.513 35.4415 105.404 34.7245C97.1118 32.8127 79.702 30.3047 60.8542 36.6837C56.6174 38.1176 52.9872 40.9392 50.5668 44.7007L44.601 53.9716C44.2045 54.588 43.8656 55.2359 43.5862 55.9066L42.6372 63.498V66.4481C42.6372 67.5452 42.7835 68.6374 43.072 69.6959L43.8499 73.2523H156.058V65.7361C156.059 65.5777 156.055 65.4209 156.047 65.2645V65.2645Z" fill="url(#paint1_linear)"/>
<path d="M156.147 72.5485C131.572 72.5485 52.2692 72.5485 43.8503 72.5485C42.6938 72.5485 41.7563 73.486 41.7563 74.6424V76.5434C41.7563 77.6998 42.6938 78.6373 43.8503 78.6373H156.147C157.303 78.6373 158.24 77.6998 158.24 76.5434V74.6424C158.24 73.486 157.303 72.5485 156.147 72.5485Z" fill="#DFF2FA"/>
<path d="M148.106 55.9062C147.925 56.3002 147.821 56.7361 147.821 57.1959V62.3883C147.821 64.099 149.22 65.4987 150.931 65.4987H156.053C155.945 60.8541 152.662 56.8793 148.106 55.9062V55.9062Z" fill="white"/>
<path d="M46.162 55.9062H43.5862C42.9628 57.4034 42.6372 59.0156 42.6372 60.6518V63.4978H46.162C47.8237 63.4978 49.1831 62.1382 49.1831 60.4767V58.9277C49.1833 57.2658 47.8237 55.9062 46.162 55.9062Z" fill="white"/>
<path d="M120.224 54.2927V52.8162L109.707 43.7602C108.064 42.3448 106.087 41.3412 103.99 40.8576C96.0293 39.0225 80.1023 36.8142 62.872 42.6452C59.9848 43.6223 57.4922 45.5651 55.8546 48.1146C55.593 48.5217 55.6763 49.061 56.0412 49.3788L63.2569 55.6645C63.4357 55.8204 63.6652 55.9062 63.9023 55.9062H120.697C120.399 55.4384 120.224 54.8855 120.224 54.2927V54.2927Z" fill="#9BCFFF"/>
<path d="M120.224 54.2927V52.8162L109.707 43.7602C108.064 42.3448 106.087 41.3412 103.99 40.8576C96.0293 39.0225 80.1023 36.8142 62.872 42.6452C59.9848 43.6223 57.4922 45.5651 55.8546 48.1146C55.593 48.5217 55.6763 49.061 56.0412 49.3788L63.2569 55.6645C63.4357 55.8204 63.6652 55.9062 63.9023 55.9062H120.697C120.399 55.4384 120.224 54.8855 120.224 54.2927V54.2927Z" fill="url(#paint2_linear)"/>
<path d="M120.224 54.2927V52.8162L109.707 43.7602C108.064 42.3448 106.087 41.3412 103.99 40.8576C96.0293 39.0225 80.1023 36.8142 62.872 42.6452C59.9848 43.6223 57.4922 45.5651 55.8546 48.1146C55.593 48.5217 55.6763 49.061 56.0412 49.3788L63.2569 55.6645C63.4357 55.8204 63.6652 55.9062 63.9023 55.9062H120.697C120.399 55.4384 120.224 54.8855 120.224 54.2927V54.2927Z" fill="url(#paint3_linear)"/>
<path d="M125.886 48.3961H123.245C121.45 48.3961 119.989 49.8565 119.989 51.6518V54.2927C119.989 56.0878 121.45 57.5484 123.245 57.5484H125.886C127.681 57.5484 129.142 56.0881 129.142 54.2927V51.6518C129.141 49.8567 127.681 48.3961 125.886 48.3961Z" fill="#DFF8FA"/>
<path d="M124.565 54.2927V51.6518C124.565 50.1935 125.529 48.956 126.853 48.5431C126.548 48.4477 126.223 48.3963 125.886 48.3963H123.245C121.45 48.3963 119.989 49.8567 119.989 51.652V54.293C119.989 56.0881 121.45 57.5487 123.245 57.5487H125.886C126.223 57.5487 126.548 57.4974 126.853 57.402C125.529 56.9885 124.565 55.751 124.565 54.2927V54.2927Z" fill="#B1DBFC"/>
<path d="M59.9893 87.5435C66.6294 87.5435 72.0123 82.1607 72.0123 75.5205C72.0123 68.8804 66.6294 63.4976 59.9893 63.4976C53.3492 63.4976 47.9663 68.8804 47.9663 75.5205C47.9663 82.1607 53.3492 87.5435 59.9893 87.5435Z" fill="white"/>
<path d="M54.4468 75.5205C54.4468 70.0036 58.1642 65.3578 63.2298 63.9429C62.1985 63.6548 61.1129 63.4976 59.9898 63.4976C53.3497 63.4976 47.9668 68.8805 47.9668 75.5205C47.9668 82.1606 53.3497 87.5435 59.9898 87.5435C61.1129 87.5435 62.1988 87.3862 63.2298 87.0982C58.1642 85.6833 54.4468 81.0375 54.4468 75.5205V75.5205Z" fill="#E8E8E8"/>
<path d="M59.9895 81.532C63.3096 81.532 66.001 78.8406 66.001 75.5205C66.001 72.2005 63.3096 69.5091 59.9895 69.5091C56.6695 69.5091 53.978 72.2005 53.978 75.5205C53.978 78.8406 56.6695 81.532 59.9895 81.532Z" fill="#D6EBFF"/>
<path d="M59.9895 81.532C63.3096 81.532 66.001 78.8406 66.001 75.5205C66.001 72.2005 63.3096 69.5091 59.9895 69.5091C56.6695 69.5091 53.978 72.2005 53.978 75.5205C53.978 78.8406 56.6695 81.532 59.9895 81.532Z" fill="url(#paint4_linear)"/>
<path d="M59.9895 81.532C63.3096 81.532 66.001 78.8406 66.001 75.5205C66.001 72.2005 63.3096 69.5091 59.9895 69.5091C56.6695 69.5091 53.978 72.2005 53.978 75.5205C53.978 78.8406 56.6695 81.532 59.9895 81.532Z" fill="url(#paint5_linear)"/>
<path d="M135.107 87.5435C141.748 87.5435 147.13 82.1607 147.13 75.5205C147.13 68.8804 141.748 63.4976 135.107 63.4976C128.467 63.4976 123.084 68.8804 123.084 75.5205C123.084 82.1607 128.467 87.5435 135.107 87.5435Z" fill="white"/>
<path d="M129.564 75.5205C129.564 70.0036 133.282 65.3578 138.347 63.9429C137.316 63.6548 136.231 63.4976 135.107 63.4976C128.467 63.4976 123.084 68.8805 123.084 75.5205C123.084 82.1606 128.467 87.5435 135.107 87.5435C136.231 87.5435 137.316 87.3862 138.347 87.0982C133.282 85.6833 129.564 81.0375 129.564 75.5205Z" fill="#E8E8E8"/>
<path d="M135.107 81.532C138.427 81.532 141.119 78.8406 141.119 75.5205C141.119 72.2005 138.427 69.5091 135.107 69.5091C131.787 69.5091 129.096 72.2005 129.096 75.5205C129.096 78.8406 131.787 81.532 135.107 81.532Z" fill="#D6EBFF"/>
<path d="M135.107 81.532C138.427 81.532 141.119 78.8406 141.119 75.5205C141.119 72.2005 138.427 69.5091 135.107 69.5091C131.787 69.5091 129.096 72.2005 129.096 75.5205C129.096 78.8406 131.787 81.532 135.107 81.532Z" fill="url(#paint6_linear)"/>
<path d="M135.107 81.532C138.427 81.532 141.119 78.8406 141.119 75.5205C141.119 72.2005 138.427 69.5091 135.107 69.5091C131.787 69.5091 129.096 72.2005 129.096 75.5205C129.096 78.8406 131.787 81.532 135.107 81.532Z" fill="url(#paint7_linear)"/>
<path d="M134.92 67.687C130.636 67.687 127.151 71.1724 127.151 75.4563C127.151 79.7402 130.636 83.2256 134.92 83.2256C139.204 83.2256 142.689 79.7402 142.689 75.4563C142.689 71.1724 139.204 67.687 134.92 67.687ZM134.92 79.71C132.575 79.71 130.667 77.8017 130.667 75.4563C130.667 73.1107 132.575 71.2027 134.92 71.2027C137.266 71.2027 139.174 73.1109 139.174 75.4563C139.174 77.8019 137.266 79.71 134.92 79.71Z" fill="#313131"/>
<path d="M59.991 67.687C55.7071 67.687 52.2217 71.1724 52.2217 75.4563C52.2217 79.7402 55.7071 83.2256 59.991 83.2256C64.2749 83.2256 67.7603 79.7402 67.7603 75.4563C67.7603 71.1724 64.2749 67.687 59.991 67.687ZM59.991 79.71C57.6453 79.71 55.7373 77.8017 55.7373 75.4563C55.7373 73.1107 57.6456 71.2027 59.991 71.2027C62.3364 71.2027 64.2446 73.1109 64.2446 75.4563C64.2446 77.8019 62.3366 79.71 59.991 79.71Z" fill="#313131"/>
<path d="M40 74.5781V76.4791C40 78.603 41.7278 80.3308 43.852 80.3308H47.1037C49.0771 85.5302 54.1082 89.2371 59.991 89.2371C65.8738 89.2371 70.9052 85.5305 72.8784 80.3308H90.0236C90.9946 80.3308 91.7814 79.5438 91.7814 78.573C91.7814 77.6022 90.9946 76.8152 90.0236 76.8152H73.7045C73.7905 75.944 73.792 75.0797 73.7184 74.2418H121.193C121.12 75.067 121.12 75.9433 121.207 76.8152H98.227C97.2559 76.8152 96.4691 77.6022 96.4691 78.573C96.4691 79.5438 97.2559 80.3308 98.227 80.3308H122.033C124.006 85.5302 129.037 89.2371 134.92 89.2371C140.803 89.2371 145.834 85.5305 147.808 80.3308H156.148C158.272 80.3308 160 78.603 160 76.4791V74.5781C160 73.053 159.107 71.7361 157.818 71.1124V65.6712C157.818 60.1076 153.934 55.2337 148.368 54.0989L130.928 50.5411C130.791 50.5132 130.655 50.4764 130.52 50.4361C130.003 48.3562 128.125 46.8087 125.887 46.8087H125.663L120.28 42.1725C119.544 41.539 118.434 41.6217 117.801 42.3574C117.167 43.0931 117.25 44.2029 117.985 44.8364L120.956 47.3944C120.12 47.8526 119.433 48.5679 119.007 49.3835L110.856 42.3642C108.998 40.7634 106.761 39.6281 104.386 39.0808C90.9716 35.9878 75.9252 36.3087 62.3104 40.9165C59.047 42.0211 56.2298 44.2172 54.3773 47.1009C53.6505 48.2325 53.8705 49.7541 54.8882 50.6405L62.1034 56.9255C62.6022 57.3605 63.2416 57.6 63.9041 57.6H119.863C120.755 58.4948 121.961 59.0079 123.247 59.0079H125.888C128.516 59.0079 130.667 56.8708 130.667 54.2287V54.0762L146.065 57.2175V62.3248C146.065 65.0091 148.249 67.193 150.934 67.193H154.303V70.7269H147.868C145.889 65.2894 140.706 61.676 134.921 61.676C129.159 61.676 123.96 65.2683 121.973 70.7269H72.9384C70.9488 65.2598 65.743 61.676 59.991 61.676C54.2378 61.676 49.0328 65.261 47.0437 70.7269H45.1945L44.7695 69.1692C44.522 68.2617 44.3966 67.3247 44.3966 66.3841V65.1919H46.1636C48.7987 65.1919 50.9425 63.048 50.9425 60.4127V58.8637C50.9425 56.3641 49.0129 54.3103 46.5655 54.105L52.0464 45.5878C54.238 42.1821 57.5669 39.5883 61.4193 38.2844C79.7095 32.0941 96.5809 34.4299 105.01 36.3731C107.487 36.9445 109.775 38.018 111.81 39.5637C112.583 40.1512 113.686 40.0003 114.273 39.2276C114.86 38.4546 114.71 37.3519 113.937 36.7645C111.503 34.9155 108.766 33.6314 105.8 32.9475C97.0077 30.9204 79.405 28.4857 60.2922 34.9544C55.6886 36.5123 51.7105 39.6129 49.09 43.6851L43.1242 52.9561C41.6664 55.2218 40.881 57.8798 40.881 60.5878V63.4338V66.3839C40.881 67.6369 41.0481 68.8851 41.3777 70.094L41.7257 71.3697C40.687 72.0597 40 73.2398 40 74.5781H40ZM108.562 45.0279L118.467 53.558V54.0841H95.8832V41.1569C98.9191 41.5308 101.534 42.0307 103.596 42.5062C105.417 42.9258 107.134 43.7979 108.562 45.0279ZM57.7173 48.4423C60.3468 44.8359 63.8814 43.9003 68.8471 42.668L70.7833 54.0841H64.1941L57.7173 48.4423ZM74.3491 54.0841L72.2838 41.9067C82.7995 39.855 90.8223 40.7866 92.3673 40.8044V54.0841H74.3491ZM125.887 55.492H123.246C122.504 55.492 121.983 54.8627 121.983 54.2285C121.983 53.253 121.983 52.5612 121.983 51.5876C121.983 50.891 122.549 50.3241 123.246 50.3241H125.887C126.584 50.3241 127.151 50.8908 127.151 51.5876V54.2285C127.151 54.9251 126.584 55.492 125.887 55.492ZM134.92 85.7215C129.215 85.7215 124.655 81.0682 124.655 75.4563C124.655 69.8686 129.199 65.1912 134.92 65.1912C140.65 65.1912 145.185 69.8761 145.185 75.4563C145.185 81.0715 140.618 85.7215 134.92 85.7215ZM149.58 62.3243V58.1892C151.806 59.2575 153.457 61.2811 154.055 63.6769H150.933C150.187 63.6769 149.58 63.0701 149.58 62.3243ZM156.06 74.242H156.148C156.333 74.242 156.484 74.393 156.484 74.5783V76.4794C156.484 76.6648 156.333 76.8155 156.148 76.8155H148.634C148.723 75.9218 148.719 75.0506 148.648 74.242H156.06ZM59.991 85.7215C54.2863 85.7215 49.7259 81.0682 49.7259 75.4563C49.7259 69.8034 54.3311 65.1912 59.991 65.1912C65.6366 65.1912 70.2562 69.7889 70.2562 75.4563C70.2562 81.0853 65.6779 85.7215 59.991 85.7215ZM46.2637 74.242C46.1896 75.0848 46.1929 75.9668 46.2777 76.8155H43.852C43.6666 76.8155 43.5156 76.6645 43.5156 76.4794V74.5781C43.5156 74.3927 43.6666 74.2418 43.852 74.2418H46.2637V74.242ZM47.4269 58.863V60.412C47.4269 61.1086 46.8602 61.6755 46.1636 61.6755H44.3969C44.4285 61.0312 44.2534 59.5427 44.8267 57.5998H46.1638C46.8604 57.5998 47.4269 58.1665 47.4269 58.863V58.863Z" fill="#313131"/>
<path d="M101.552 64.2553C102.524 64.2553 103.31 63.4683 103.31 62.4975C103.31 61.5267 102.524 60.7397 101.552 60.7397H99.3496C98.3786 60.7397 97.5918 61.5267 97.5918 62.4975C97.5918 63.4683 98.3786 64.2553 99.3496 64.2553H101.552Z" fill="#313131"/>
<path d="M79.5227 64.2553C80.4937 64.2553 81.2805 63.4683 81.2805 62.4975C81.2805 61.5267 80.4937 60.7397 79.5227 60.7397H77.3198C76.3488 60.7397 75.562 61.5267 75.562 62.4975C75.562 63.4683 76.3488 64.2553 77.3198 64.2553H79.5227Z" fill="#313131"/>
<line x1="6" y1="59" x2="33" y2="59" stroke="white" stroke-width="2" stroke-linecap="round"/>
<line x1="167" y1="59" x2="194" y2="59" stroke="white" stroke-width="2" stroke-linecap="round"/>
<defs>
<linearGradient id="paint0_linear" x1="99.3478" y1="32.5917" x2="99.3478" y2="73.2523" gradientUnits="userSpaceOnUse">
<stop stop-color="white" stop-opacity="0"/>
<stop offset="1" stop-color="#73BCFF" stop-opacity="0.4"/>
</linearGradient>
<linearGradient id="paint1_linear" x1="42.8451" y1="54.7702" x2="156.757" y2="54.7702" gradientUnits="userSpaceOnUse">
<stop stop-color="#DCD0FF"/>
<stop offset="1" stop-color="white" stop-opacity="0"/>
</linearGradient>
<linearGradient id="paint2_linear" x1="88.1997" y1="38.8745" x2="88.1997" y2="55.9062" gradientUnits="userSpaceOnUse">
<stop stop-color="#6889FF" stop-opacity="0"/>
<stop offset="1" stop-color="#73BCFF" stop-opacity="0.4"/>
</linearGradient>
<linearGradient id="paint3_linear" x1="55.8213" y1="48.1645" x2="121.098" y2="48.1645" gradientUnits="userSpaceOnUse">
<stop stop-color="white" stop-opacity="0"/>
<stop offset="1" stop-color="#D0FCFF"/>
</linearGradient>
<linearGradient id="paint4_linear" x1="59.9895" y1="69.5091" x2="59.9895" y2="81.532" gradientUnits="userSpaceOnUse">
<stop stop-color="white" stop-opacity="0"/>
<stop offset="1" stop-color="#73BCFF" stop-opacity="0.4"/>
</linearGradient>
<linearGradient id="paint5_linear" x1="54.0001" y1="76.067" x2="66.0751" y2="76.067" gradientUnits="userSpaceOnUse">
<stop stop-color="#DCD0FF"/>
<stop offset="1" stop-color="white" stop-opacity="0"/>
</linearGradient>
<linearGradient id="paint6_linear" x1="135.107" y1="69.5091" x2="135.107" y2="81.532" gradientUnits="userSpaceOnUse">
<stop stop-color="white" stop-opacity="0"/>
<stop offset="1" stop-color="#73BCFF" stop-opacity="0.4"/>
</linearGradient>
<linearGradient id="paint7_linear" x1="129.118" y1="76.067" x2="141.193" y2="76.067" gradientUnits="userSpaceOnUse">
<stop stop-color="#DCD0FF"/>
<stop offset="1" stop-color="white" stop-opacity="0"/>
</linearGradient>
</defs>
</svg>
